<mxfile host="app.diagrams.net" agent="Mozilla/5.0 (Windows NT 10.0; Win64; x64) AppleWebKit/537.36 (KHTML, like Gecko) Chrome/130.0.0.0 Safari/537.36" version="24.8.3" pages="2">
  <diagram name="Absensi berjalan" id="K2sdL-CNl2_QNscl5u_D">
    <mxGraphModel dx="1588" dy="984" grid="1" gridSize="10" guides="1" tooltips="1" connect="1" arrows="1" fold="1" page="1" pageScale="1" pageWidth="1169" pageHeight="827" math="0" shadow="0">
      <root>
        <mxCell id="0" />
        <mxCell id="1" parent="0" />
        <mxCell id="RP2PNdKI0fSP1oUf7DS6-1" value="" style="shape=ellipse;fillColor=#0065FF;strokeColor=none;html=1;sketch=0;" vertex="1" parent="1">
          <mxGeometry x="684" y="155" width="10" height="10" as="geometry" />
        </mxCell>
        <mxCell id="RP2PNdKI0fSP1oUf7DS6-2" value="Admin Bagian" style="swimlane;whiteSpace=wrap;html=1;startSize=23;" vertex="1" parent="1">
          <mxGeometry x="285" y="165" width="200" height="508" as="geometry" />
        </mxCell>
        <mxCell id="RP2PNdKI0fSP1oUf7DS6-3" style="rounded=0;orthogonalLoop=1;jettySize=auto;html=1;entryX=0.5;entryY=0;entryDx=0;entryDy=0;" edge="1" parent="RP2PNdKI0fSP1oUf7DS6-2" target="RP2PNdKI0fSP1oUf7DS6-5">
          <mxGeometry relative="1" as="geometry">
            <mxPoint x="505" y="158" as="targetPoint" />
            <mxPoint x="100" y="128" as="sourcePoint" />
          </mxGeometry>
        </mxCell>
        <mxCell id="RP2PNdKI0fSP1oUf7DS6-5" value="Melakukan absensi saat apel pagi" style="rounded=0;whiteSpace=wrap;html=1;" vertex="1" parent="RP2PNdKI0fSP1oUf7DS6-2">
          <mxGeometry x="40" y="94" width="120" height="60" as="geometry" />
        </mxCell>
        <mxCell id="RP2PNdKI0fSP1oUf7DS6-9" style="edgeStyle=orthogonalEdgeStyle;rounded=0;orthogonalLoop=1;jettySize=auto;html=1;exitX=0.5;exitY=1;exitDx=0;exitDy=0;entryX=0.5;entryY=0;entryDx=0;entryDy=0;" edge="1" parent="RP2PNdKI0fSP1oUf7DS6-2" source="RP2PNdKI0fSP1oUf7DS6-10" target="RP2PNdKI0fSP1oUf7DS6-5">
          <mxGeometry relative="1" as="geometry" />
        </mxCell>
        <mxCell id="RP2PNdKI0fSP1oUf7DS6-10" value="" style="ellipse;html=1;shape=startState;fillColor=#000000;strokeColor=#ff0000;" vertex="1" parent="RP2PNdKI0fSP1oUf7DS6-2">
          <mxGeometry x="85" y="34" width="30" height="30" as="geometry" />
        </mxCell>
        <mxCell id="RP2PNdKI0fSP1oUf7DS6-11" value="Admin Operator" style="swimlane;whiteSpace=wrap;html=1;startSize=23;" vertex="1" parent="1">
          <mxGeometry x="485" y="165" width="200" height="508" as="geometry" />
        </mxCell>
        <mxCell id="RP2PNdKI0fSP1oUf7DS6-38" style="edgeStyle=orthogonalEdgeStyle;rounded=0;orthogonalLoop=1;jettySize=auto;html=1;exitX=0.5;exitY=1;exitDx=0;exitDy=0;entryX=0.5;entryY=0;entryDx=0;entryDy=0;" edge="1" parent="RP2PNdKI0fSP1oUf7DS6-11" source="RP2PNdKI0fSP1oUf7DS6-19" target="RP2PNdKI0fSP1oUf7DS6-34">
          <mxGeometry relative="1" as="geometry" />
        </mxCell>
        <mxCell id="RP2PNdKI0fSP1oUf7DS6-19" value="Mengompulir absen masing-masing bagian" style="rounded=0;whiteSpace=wrap;html=1;" vertex="1" parent="RP2PNdKI0fSP1oUf7DS6-11">
          <mxGeometry x="40" y="94" width="120" height="60" as="geometry" />
        </mxCell>
        <mxCell id="RP2PNdKI0fSP1oUf7DS6-39" style="edgeStyle=orthogonalEdgeStyle;rounded=0;orthogonalLoop=1;jettySize=auto;html=1;exitX=0.5;exitY=1;exitDx=0;exitDy=0;entryX=0.5;entryY=0;entryDx=0;entryDy=0;" edge="1" parent="RP2PNdKI0fSP1oUf7DS6-11" source="RP2PNdKI0fSP1oUf7DS6-34" target="RP2PNdKI0fSP1oUf7DS6-35">
          <mxGeometry relative="1" as="geometry" />
        </mxCell>
        <mxCell id="RP2PNdKI0fSP1oUf7DS6-34" value="Merekap absensi masing-masing bagian selama seminggu" style="rounded=0;whiteSpace=wrap;html=1;" vertex="1" parent="RP2PNdKI0fSP1oUf7DS6-11">
          <mxGeometry x="40" y="218" width="120" height="60" as="geometry" />
        </mxCell>
        <mxCell id="RP2PNdKI0fSP1oUf7DS6-35" value="Melaporkan absen selama seminggu" style="rounded=0;whiteSpace=wrap;html=1;" vertex="1" parent="RP2PNdKI0fSP1oUf7DS6-11">
          <mxGeometry x="40" y="338" width="120" height="60" as="geometry" />
        </mxCell>
        <mxCell id="RP2PNdKI0fSP1oUf7DS6-24" value="Pimpinan" style="swimlane;whiteSpace=wrap;html=1;startSize=23;" vertex="1" parent="1">
          <mxGeometry x="685" y="165" width="200" height="508" as="geometry" />
        </mxCell>
        <mxCell id="RP2PNdKI0fSP1oUf7DS6-41" style="edgeStyle=orthogonalEdgeStyle;rounded=0;orthogonalLoop=1;jettySize=auto;html=1;exitX=0.5;exitY=1;exitDx=0;exitDy=0;entryX=0.5;entryY=0;entryDx=0;entryDy=0;" edge="1" parent="RP2PNdKI0fSP1oUf7DS6-24" source="RP2PNdKI0fSP1oUf7DS6-36" target="RP2PNdKI0fSP1oUf7DS6-37">
          <mxGeometry relative="1" as="geometry" />
        </mxCell>
        <mxCell id="RP2PNdKI0fSP1oUf7DS6-36" value="Menerima rekap absen selama seminggu" style="rounded=0;whiteSpace=wrap;html=1;" vertex="1" parent="RP2PNdKI0fSP1oUf7DS6-24">
          <mxGeometry x="40" y="338" width="120" height="60" as="geometry" />
        </mxCell>
        <mxCell id="RP2PNdKI0fSP1oUf7DS6-37" value="" style="ellipse;html=1;shape=endState;fillColor=#000000;strokeColor=#ff0000;" vertex="1" parent="RP2PNdKI0fSP1oUf7DS6-24">
          <mxGeometry x="85" y="438" width="30" height="30" as="geometry" />
        </mxCell>
        <mxCell id="RP2PNdKI0fSP1oUf7DS6-33" style="edgeStyle=orthogonalEdgeStyle;rounded=0;orthogonalLoop=1;jettySize=auto;html=1;exitX=1;exitY=0.5;exitDx=0;exitDy=0;entryX=0;entryY=0.5;entryDx=0;entryDy=0;" edge="1" parent="1" source="RP2PNdKI0fSP1oUf7DS6-5" target="RP2PNdKI0fSP1oUf7DS6-19">
          <mxGeometry relative="1" as="geometry" />
        </mxCell>
        <mxCell id="RP2PNdKI0fSP1oUf7DS6-40" style="edgeStyle=orthogonalEdgeStyle;rounded=0;orthogonalLoop=1;jettySize=auto;html=1;exitX=1;exitY=0.5;exitDx=0;exitDy=0;entryX=0;entryY=0.5;entryDx=0;entryDy=0;" edge="1" parent="1" source="RP2PNdKI0fSP1oUf7DS6-35" target="RP2PNdKI0fSP1oUf7DS6-36">
          <mxGeometry relative="1" as="geometry" />
        </mxCell>
      </root>
    </mxGraphModel>
  </diagram>
  <diagram id="sGYy2NE35psyO95sojaD" name="Cuti berjalan">
    <mxGraphModel dx="934" dy="579" grid="1" gridSize="10" guides="1" tooltips="1" connect="1" arrows="1" fold="1" page="1" pageScale="1" pageWidth="1169" pageHeight="827" math="0" shadow="0">
      <root>
        <mxCell id="0" />
        <mxCell id="1" parent="0" />
        <mxCell id="Ii3kwbRo7oEwA61v0vtd-1" value="" style="shape=ellipse;fillColor=#0065FF;strokeColor=none;html=1;sketch=0;" vertex="1" parent="1">
          <mxGeometry x="684" y="155" width="10" height="10" as="geometry" />
        </mxCell>
        <mxCell id="Ii3kwbRo7oEwA61v0vtd-2" value="Admin Bagian" style="swimlane;whiteSpace=wrap;html=1;startSize=23;" vertex="1" parent="1">
          <mxGeometry x="285" y="165" width="200" height="508" as="geometry" />
        </mxCell>
        <mxCell id="Ii3kwbRo7oEwA61v0vtd-3" style="rounded=0;orthogonalLoop=1;jettySize=auto;html=1;entryX=0.5;entryY=0;entryDx=0;entryDy=0;" edge="1" parent="Ii3kwbRo7oEwA61v0vtd-2" target="Ii3kwbRo7oEwA61v0vtd-4">
          <mxGeometry relative="1" as="geometry">
            <mxPoint x="505" y="158" as="targetPoint" />
            <mxPoint x="100" y="128" as="sourcePoint" />
          </mxGeometry>
        </mxCell>
        <mxCell id="Ii3kwbRo7oEwA61v0vtd-4" value="Mengajukan cuti" style="rounded=0;whiteSpace=wrap;html=1;" vertex="1" parent="Ii3kwbRo7oEwA61v0vtd-2">
          <mxGeometry x="40" y="94" width="120" height="60" as="geometry" />
        </mxCell>
        <mxCell id="Ii3kwbRo7oEwA61v0vtd-5" style="edgeStyle=orthogonalEdgeStyle;rounded=0;orthogonalLoop=1;jettySize=auto;html=1;exitX=0.5;exitY=1;exitDx=0;exitDy=0;entryX=0.5;entryY=0;entryDx=0;entryDy=0;" edge="1" parent="Ii3kwbRo7oEwA61v0vtd-2" source="Ii3kwbRo7oEwA61v0vtd-6" target="Ii3kwbRo7oEwA61v0vtd-4">
          <mxGeometry relative="1" as="geometry" />
        </mxCell>
        <mxCell id="Ii3kwbRo7oEwA61v0vtd-6" value="" style="ellipse;html=1;shape=startState;fillColor=#000000;strokeColor=#ff0000;" vertex="1" parent="Ii3kwbRo7oEwA61v0vtd-2">
          <mxGeometry x="85" y="34" width="30" height="30" as="geometry" />
        </mxCell>
        <mxCell id="Ii3kwbRo7oEwA61v0vtd-23" value="Pemberitahuan penolakan izin" style="rounded=0;whiteSpace=wrap;html=1;" vertex="1" parent="Ii3kwbRo7oEwA61v0vtd-2">
          <mxGeometry x="40" y="205" width="120" height="60" as="geometry" />
        </mxCell>
        <mxCell id="Ii3kwbRo7oEwA61v0vtd-7" value="Admin Operator" style="swimlane;whiteSpace=wrap;html=1;startSize=23;" vertex="1" parent="1">
          <mxGeometry x="485" y="165" width="200" height="508" as="geometry" />
        </mxCell>
        <mxCell id="Ii3kwbRo7oEwA61v0vtd-9" value="Verifikasi kelayakan sesuai absensi kerja" style="rounded=0;whiteSpace=wrap;html=1;" vertex="1" parent="Ii3kwbRo7oEwA61v0vtd-7">
          <mxGeometry x="40" y="94" width="120" height="60" as="geometry" />
        </mxCell>
        <mxCell id="Ii3kwbRo7oEwA61v0vtd-22" value="Meneruskan disposisi" style="rounded=0;whiteSpace=wrap;html=1;" vertex="1" parent="Ii3kwbRo7oEwA61v0vtd-7">
          <mxGeometry x="40" y="205" width="120" height="60" as="geometry" />
        </mxCell>
        <mxCell id="Ii3kwbRo7oEwA61v0vtd-30" style="edgeStyle=orthogonalEdgeStyle;rounded=0;orthogonalLoop=1;jettySize=auto;html=1;exitX=0.5;exitY=1;exitDx=0;exitDy=0;entryX=0.5;entryY=0;entryDx=0;entryDy=0;" edge="1" parent="Ii3kwbRo7oEwA61v0vtd-7" source="Ii3kwbRo7oEwA61v0vtd-27" target="Ii3kwbRo7oEwA61v0vtd-29">
          <mxGeometry relative="1" as="geometry" />
        </mxCell>
        <mxCell id="Ii3kwbRo7oEwA61v0vtd-27" value="Membuat surat izin atau cuti" style="rounded=0;whiteSpace=wrap;html=1;" vertex="1" parent="Ii3kwbRo7oEwA61v0vtd-7">
          <mxGeometry x="40" y="315" width="120" height="60" as="geometry" />
        </mxCell>
        <mxCell id="Ii3kwbRo7oEwA61v0vtd-29" value="" style="ellipse;html=1;shape=endState;fillColor=#000000;strokeColor=#ff0000;" vertex="1" parent="Ii3kwbRo7oEwA61v0vtd-7">
          <mxGeometry x="85" y="415" width="30" height="30" as="geometry" />
        </mxCell>
        <mxCell id="Ii3kwbRo7oEwA61v0vtd-13" value="Pimpinan" style="swimlane;whiteSpace=wrap;html=1;startSize=23;" vertex="1" parent="1">
          <mxGeometry x="685" y="165" width="200" height="508" as="geometry" />
        </mxCell>
        <mxCell id="Ii3kwbRo7oEwA61v0vtd-24" style="edgeStyle=orthogonalEdgeStyle;rounded=0;orthogonalLoop=1;jettySize=auto;html=1;exitX=0.5;exitY=1;exitDx=0;exitDy=0;entryX=0.5;entryY=0;entryDx=0;entryDy=0;" edge="1" parent="Ii3kwbRo7oEwA61v0vtd-13" source="Ii3kwbRo7oEwA61v0vtd-19" target="Ii3kwbRo7oEwA61v0vtd-21">
          <mxGeometry relative="1" as="geometry" />
        </mxCell>
        <mxCell id="Ii3kwbRo7oEwA61v0vtd-19" value="Menerima pengajuan" style="rounded=0;whiteSpace=wrap;html=1;" vertex="1" parent="Ii3kwbRo7oEwA61v0vtd-13">
          <mxGeometry x="40" y="94" width="120" height="60" as="geometry" />
        </mxCell>
        <mxCell id="Ii3kwbRo7oEwA61v0vtd-21" value="Disetujui?" style="rhombus;whiteSpace=wrap;html=1;" vertex="1" parent="Ii3kwbRo7oEwA61v0vtd-13">
          <mxGeometry x="60" y="195" width="80" height="80" as="geometry" />
        </mxCell>
        <mxCell id="Ii3kwbRo7oEwA61v0vtd-17" style="edgeStyle=orthogonalEdgeStyle;rounded=0;orthogonalLoop=1;jettySize=auto;html=1;exitX=1;exitY=0.5;exitDx=0;exitDy=0;entryX=0;entryY=0.5;entryDx=0;entryDy=0;" edge="1" parent="1" source="Ii3kwbRo7oEwA61v0vtd-4" target="Ii3kwbRo7oEwA61v0vtd-9">
          <mxGeometry relative="1" as="geometry" />
        </mxCell>
        <mxCell id="Ii3kwbRo7oEwA61v0vtd-20" style="edgeStyle=orthogonalEdgeStyle;rounded=0;orthogonalLoop=1;jettySize=auto;html=1;exitX=1;exitY=0.5;exitDx=0;exitDy=0;entryX=0;entryY=0.5;entryDx=0;entryDy=0;" edge="1" parent="1" source="Ii3kwbRo7oEwA61v0vtd-9" target="Ii3kwbRo7oEwA61v0vtd-19">
          <mxGeometry relative="1" as="geometry" />
        </mxCell>
        <mxCell id="Ii3kwbRo7oEwA61v0vtd-25" value="No" style="edgeStyle=orthogonalEdgeStyle;rounded=0;orthogonalLoop=1;jettySize=auto;html=1;exitX=0;exitY=0.5;exitDx=0;exitDy=0;entryX=1;entryY=0.5;entryDx=0;entryDy=0;" edge="1" parent="1" source="Ii3kwbRo7oEwA61v0vtd-21" target="Ii3kwbRo7oEwA61v0vtd-22">
          <mxGeometry relative="1" as="geometry" />
        </mxCell>
        <mxCell id="Ii3kwbRo7oEwA61v0vtd-26" style="edgeStyle=orthogonalEdgeStyle;rounded=0;orthogonalLoop=1;jettySize=auto;html=1;exitX=0;exitY=0.5;exitDx=0;exitDy=0;entryX=1;entryY=0.5;entryDx=0;entryDy=0;" edge="1" parent="1" source="Ii3kwbRo7oEwA61v0vtd-22" target="Ii3kwbRo7oEwA61v0vtd-23">
          <mxGeometry relative="1" as="geometry" />
        </mxCell>
        <mxCell id="Ii3kwbRo7oEwA61v0vtd-28" value="Yes" style="edgeStyle=orthogonalEdgeStyle;rounded=0;orthogonalLoop=1;jettySize=auto;html=1;exitX=0.5;exitY=1;exitDx=0;exitDy=0;entryX=1;entryY=0.5;entryDx=0;entryDy=0;" edge="1" parent="1" source="Ii3kwbRo7oEwA61v0vtd-21" target="Ii3kwbRo7oEwA61v0vtd-27">
          <mxGeometry relative="1" as="geometry" />
        </mxCell>
      </root>
    </mxGraphModel>
  </diagram>
</mxfile>
